<?xml version="1.0" encoding="utf-8"?>
<!-- Generator: Adobe Illustrator 24.0.2, SVG Export Plug-In . SVG Version: 6.00 Build 0)  -->
<svg version="1.1" id="Layer_1" xmlns="http://www.w3.org/2000/svg" xmlns:xlink="http://www.w3.org/1999/xlink" x="0px" y="0px"
	 viewBox="0 0 512 512" enable-background="new 0 0 512 512" xml:space="preserve">
<g>
	<g>
		<path fill="#F2F2F2" d="M249.7,18.7C118,18.7,11.3,125.5,11.3,257.2c0,131.7,106.8,238.5,238.5,238.5
			c131.7,0,238.5-106.8,238.5-238.5C488.2,125.5,381.4,18.7,249.7,18.7z M249.7,439c-100.4,0-181.8-81.4-181.8-181.8
			c0-100.4,81.4-181.8,181.8-181.8c100.4,0,181.8,81.4,181.8,181.8C431.5,357.6,350.1,439,249.7,439z"/>
	</g>
</g>
<g>
	<path fill="#CDCCCA" d="M383.3,257.2c0,73.8-59.8,133.6-133.6,133.6c-73.8,0-133.6-59.8-133.6-133.6c0-73.8,59.8-133.6,133.6-133.6
		C323.5,123.6,383.3,183.4,383.3,257.2z"/>
</g>
<g>
	<path fill="#FFFFFF" d="M341.9,257.2c0,50.9-41.3,92.2-92.2,92.2c-50.9,0-92.2-41.3-92.2-92.2c0-50.9,41.3-92.2,92.2-92.2
		C300.6,165,341.9,206.3,341.9,257.2z"/>
</g>
<g>
	<g>
		<polygon fill="#353F49" points="246.3,278.4 115.8,203.1 127.9,182.1 246.4,250.5 417.4,152.2 429.5,173.2 		"/>
	</g>
</g>
<g>
	<path fill="#F77B55" d="M295.4,257.2c0,25.2-20.4,45.7-45.7,45.7s-45.7-20.4-45.7-45.7c0-25.2,20.4-45.7,45.7-45.7
		S295.4,232,295.4,257.2z"/>
</g>
<g>
	<path fill="#F2F2F2" d="M249.7,75.4c100.4,0,181.8,81.4,181.8,181.8c0,23.5-4.5,46-12.7,66.6l52.8,20.8
		c10.7-27.1,16.5-56.6,16.5-87.4c0-131.7-106.8-238.5-238.5-238.5c-2.5,0-5.1,0.1-7.6,0.1l1.8,56.7
		C245.9,75.5,247.8,75.4,249.7,75.4z"/>
</g>
<g>
	<path fill="#FCD751" d="M173.8,422.4c-56.3-25.9-97-79.7-104.5-143.7l-56.3,6.7c9.9,83.9,63.3,154.5,137.1,188.5L173.8,422.4z"/>
</g>
<g>
	<path fill="#353F49" d="M249.7,439c-27.1,0-52.8-6-76-16.6l-23.7,51.5c30.3,14,64.1,21.8,99.6,21.8c28.5,0,55.8-5,81.2-14.2
		l-19.3-53.3C292.3,435.2,271.4,439,249.7,439z"/>
</g>
<g>
	<path fill="#FFA229" d="M67.9,257.2c0-98.5,78.3-178.6,176-181.7l-1.8-56.7C113.9,22.9,11.3,128,11.3,257.2
		c0,9.5,0.6,18.9,1.7,28.2l56.3-6.7C68.4,271.6,67.9,264.5,67.9,257.2z"/>
</g>
<g>
	<path fill="#92E0EA" d="M374.4,389.4l38.9,41.3c25.3-23.9,45.4-53.2,58.3-86.1l-52.8-20.8C409,348.9,393.7,371.3,374.4,389.4z"/>
</g>
<g>
	<polygon fill="#F77B55" points="428.9,75.3 433.1,45 481.4,14.5 472.7,46.6 	"/>
</g>
<g>
	<polygon fill="#F77B55" points="431.3,79.7 460.5,88.5 508.4,57.3 475.5,51.8 	"/>
</g>
<g>
	
		<rect x="382.9" y="1.2" transform="matrix(0.546 0.8378 -0.8378 0.546 264.6273 -274.8791)" fill="#353F49" width="6.1" height="211"/>
</g>
</svg>
